<svg version="1.1" id="Layer_1" xmlns="http://www.w3.org/2000/svg" xmlns:xlink="http://www.w3.org/1999/xlink" x="0px" y="0px"
	 width="100%" viewBox="0 0 1024 1024" enable-background="new 0 0 1024 1024" xml:space="preserve">
<path fill="#000000" opacity="1.000000" stroke="none" 
	d="
M498.924622,861.584290 
	C498.483948,860.351990 498.146118,859.449951 497.402924,857.465515 
	C493.822662,865.108093 490.665466,871.845703 487.509949,878.584167 
	C484.543060,884.919739 481.447083,891.199585 478.670624,897.617554 
	C477.399078,900.556763 475.560822,901.498169 472.480896,901.309326 
	C469.180206,901.106995 467.830658,899.338684 467.185608,896.405701 
	C464.396759,883.725403 461.549744,871.057800 458.708710,858.388977 
	C458.346069,856.771851 457.894501,855.174622 457.178864,852.373230 
	C456.008026,854.717407 455.215240,856.196228 454.517578,857.718567 
	C449.243866,869.226685 444.001923,880.749390 438.722595,892.254883 
	C436.081848,898.010010 434.949677,898.380554 428.568451,895.658508 
	C428.043762,893.032532 429.726807,890.957336 430.700775,888.781006 
	C437.437256,873.729004 444.350769,858.756104 451.068085,843.695618 
	C452.566406,840.336243 454.212738,838.282410 458.452454,838.678162 
	C462.755585,839.079895 463.905182,841.489624 464.674255,845.081726 
	C467.112640,856.470459 469.738831,867.819214 472.321228,879.176819 
	C472.793060,881.251953 473.400269,883.296265 474.312500,886.743713 
	C478.825958,876.964661 482.758118,868.405212 486.726624,859.862610 
	C488.902008,855.179871 491.193024,850.550232 493.324432,845.847900 
	C494.364716,843.552917 495.893127,842.287537 498.408569,843.097473 
	C500.875885,843.891907 504.361206,842.728271 505.238098,846.746826 
	C509.420532,865.913269 513.676086,885.063782 517.877991,904.226013 
	C517.933289,904.478149 517.627441,904.809570 517.487061,905.102478 
	C509.758240,906.137512 508.671143,905.516052 507.089752,898.496826 
	C504.345306,886.315552 501.709076,874.109985 498.924622,861.584290 
z"/>
<path fill="#000000" opacity="1.000000" stroke="none" 
	d="
M312.415070,775.574463 
	C321.059570,782.864624 320.678497,781.099792 313.813171,789.159668 
	C304.105103,800.556946 294.462891,812.013367 284.989410,823.605408 
	C282.258118,826.947449 280.171509,827.920898 276.607330,824.596924 
	C270.893341,819.267822 264.461487,814.693054 258.882141,809.237915 
	C243.532516,794.229858 245.689682,772.408264 263.375214,760.961182 
	C273.941101,754.122314 287.935699,755.440369 299.134521,764.437378 
	C303.544464,767.980408 307.806793,771.707153 312.415070,775.574463 
M258.125824,788.379639 
	C258.136322,794.226868 260.696594,799.010803 264.706238,802.971436 
	C268.125153,806.348694 272.012512,809.248230 275.484497,812.576294 
	C278.300720,815.275879 280.143158,814.481628 282.349396,811.753174 
	C287.568909,805.298218 293.087280,799.085754 298.354858,792.668518 
	C301.155670,789.256531 304.451660,786.175659 306.621338,781.682922 
	C301.585266,777.603027 297.015900,773.160522 291.761230,769.784729 
	C276.693359,760.104675 259.133575,769.496155 258.125824,788.379639 
z"/>
<path fill="#000000" opacity="1.000000" stroke="none" 
	d="
M862.311157,461.006409 
	C874.061462,460.205841 885.354309,459.561432 896.626953,458.662964 
	C901.208069,458.297821 903.566589,459.175110 903.576233,464.621216 
	C903.593506,474.382416 906.123657,484.088379 904.312195,493.922028 
	C901.757141,507.792389 890.593323,517.863403 877.221558,518.321533 
	C861.083557,518.874573 849.706299,510.908966 845.971619,496.145172 
	C843.467529,486.246246 844.160095,475.975769 842.905701,465.923035 
	C842.527649,462.893646 844.590576,462.241699 846.909485,462.061371 
	C851.884033,461.674500 856.866394,461.388031 862.311157,461.006409 
M893.533630,497.881622 
	C897.901855,490.243530 895.734985,482.039703 895.741577,473.989441 
	C895.744873,469.953949 894.150269,468.720642 890.351807,468.993225 
	C878.910767,469.814301 867.461304,470.532257 856.007690,471.153595 
	C852.909729,471.321625 851.966187,472.817322 852.214233,475.638458 
	C852.578125,479.776642 852.848694,483.923004 853.192078,488.063110 
	C854.058105,498.503937 859.749084,505.748749 868.965210,508.175873 
	C878.217957,510.612671 887.281555,507.002167 893.533630,497.881622 
z"/>
<path fill="#000000" opacity="1.000000" stroke="none" 
	d="
M579.841797,147.408752 
	C580.396606,167.935135 568.142822,180.645340 548.053345,180.304642 
	C539.763977,180.164062 531.495239,178.973923 523.209473,178.365402 
	C520.032227,178.132065 518.945129,176.771866 519.270264,173.521667 
	C520.907593,157.153107 522.350830,140.765244 523.893433,124.387093 
	C524.485962,118.096413 525.228333,117.588516 531.320862,118.316246 
	C538.744385,119.202988 546.236755,119.633621 553.604736,120.839821 
	C568.360535,123.255447 577.411865,132.509735 579.841797,147.408752 
M558.998047,169.683395 
	C567.471985,165.160965 570.967407,157.618179 570.356384,148.552521 
	C569.708313,138.937531 563.934021,132.684204 554.766296,129.859985 
	C549.017151,128.088913 542.938965,128.186539 537.015808,127.394020 
	C534.583679,127.068611 533.465271,128.123444 533.210815,130.719376 
	C532.044067,142.625290 530.671570,154.510910 529.435303,166.410309 
	C529.248535,168.207611 529.000549,170.455963 531.650330,170.623413 
	C540.547424,171.185577 549.507263,173.726334 558.998047,169.683395 
z"/>
<path fill="#000000" opacity="1.000000" stroke="none" 
	d="
M300.484558,211.487579 
	C306.692535,216.483887 312.613800,221.264999 319.690857,226.979355 
	C317.649414,215.819427 315.833771,206.100143 314.114105,196.363922 
	C313.615417,193.540512 312.378235,190.707413 315.936707,188.442429 
	C319.399414,186.238388 321.459839,188.065720 323.854004,189.948471 
	C331.667603,196.093033 339.509521,202.201538 348.560760,209.277863 
	C346.372162,197.921219 344.470734,188.053085 342.568665,178.185074 
	C341.425140,172.252457 342.018646,171.390305 348.854370,169.750259 
	C350.646851,178.479858 352.472504,187.191391 354.214661,195.919586 
	C355.352600,201.620667 356.167236,207.394348 357.519897,213.041336 
	C358.272125,216.181580 356.933411,217.599075 354.562378,219.021927 
	C352.190308,220.445404 350.268494,220.899307 347.814911,218.918625 
	C341.340424,213.692062 334.673157,208.702637 328.034485,203.682510 
	C326.765076,202.722580 325.786285,201.168304 323.200378,201.202652 
	C324.849915,210.451508 326.444397,219.547455 328.105865,228.631149 
	C328.767883,232.250732 329.081787,235.479095 324.717407,237.290039 
	C322.601959,238.167801 321.075775,238.280258 319.255066,236.845535 
	C308.010834,227.985168 296.713654,219.191971 285.450623,210.355408 
	C285.087311,210.070343 284.902161,209.558273 284.649261,209.175201 
	C288.105774,204.246628 290.231720,203.787247 294.644318,207.024323 
	C296.523193,208.402634 298.348297,209.854141 300.484558,211.487579 
z"/>
<path fill="#000000" opacity="1.000000" stroke="none" 
	d="
M368.927673,809.992554 
	C371.478241,812.241394 373.079315,814.763672 374.671844,817.597900 
	C376.607971,817.412109 376.887573,814.456665 379.409363,814.914795 
	C383.998016,815.748535 385.491364,818.199524 383.394592,822.466187 
	C375.471436,838.588440 367.465973,854.670532 359.628937,870.834473 
	C358.119659,873.947266 356.653107,875.185730 353.146393,873.397461 
	C349.765839,871.673523 349.474030,869.770081 351.124512,866.655701 
	C353.747284,861.706482 356.087708,856.607727 358.873169,850.905701 
	C353.407227,851.394897 348.846588,851.343872 344.444092,849.370789 
	C331.574554,843.603210 326.571289,829.958008 332.851105,817.333923 
	C339.052856,804.866699 352.626831,800.583984 364.935638,807.249817 
	C366.243378,807.958008 367.416656,808.914429 368.927673,809.992554 
M343.076996,838.384888 
	C344.249603,839.310242 345.338928,840.374573 346.609650,841.136292 
	C351.419037,844.019165 356.315704,844.464539 361.161499,841.210938 
	C366.935974,837.333740 369.536377,831.883545 368.821411,824.968140 
	C368.217804,819.130188 364.421600,815.792419 359.322784,813.811890 
	C353.374359,811.501282 347.261475,813.393494 343.229767,818.506836 
	C338.312469,824.743225 338.106628,830.950500 343.076996,838.384888 
z"/>
<path fill="#000000" opacity="1.000000" stroke="none" 
	d="
M179.166229,517.091797 
	C183.754593,526.128113 183.389221,534.660339 178.324356,542.615051 
	C183.755981,542.615051 189.047714,542.712402 194.333267,542.574280 
	C197.013275,542.504272 199.280350,542.221008 199.386307,546.078186 
	C199.481857,549.556946 198.929993,551.876892 194.802261,552.044067 
	C188.495865,552.299377 182.199677,552.803589 175.898468,553.191101 
	C165.452087,553.833618 155.009506,554.562988 144.555359,555.035828 
	C142.012543,555.150818 138.601517,556.734192 137.296036,552.792969 
	C136.081589,549.126587 137.124420,546.305481 141.191101,545.265320 
	C132.672562,530.886047 134.245316,517.711121 145.077820,510.433990 
	C156.400452,502.827515 170.503189,505.453979 179.166229,517.091797 
M170.493469,539.920654 
	C171.285172,538.658386 172.236038,537.467590 172.840927,536.121399 
	C175.433395,530.351685 173.851990,522.981262 169.312134,519.198120 
	C164.038254,514.803162 155.694672,514.485535 149.773071,518.454285 
	C144.666580,521.876709 142.458374,528.677734 144.475235,534.770935 
	C147.903793,545.129028 160.348373,547.903137 170.493469,539.920654 
z"/>
<path fill="#000000" opacity="1.000000" stroke="none" 
	d="
M811.967773,309.942993 
	C804.589966,316.990417 796.419189,320.566193 786.742798,316.700226 
	C777.039246,312.823456 772.008240,305.201874 771.386414,293.603302 
	C766.750244,297.131622 762.558960,300.161987 758.557678,303.425323 
	C756.077393,305.448151 754.201233,306.652435 751.627869,303.305817 
	C749.129211,300.056335 749.968201,298.233948 752.880249,295.988678 
	C766.317200,285.628296 779.600830,275.069183 793.034790,264.704834 
	C794.878418,263.282471 796.808289,260.153290 799.738708,263.313751 
	C802.033081,265.788177 804.099792,268.343109 799.770630,271.028442 
	C819.248962,280.388550 824.091919,296.036591 811.967773,309.942993 
M804.745361,282.710663 
	C798.377991,278.075836 791.576538,277.847504 785.885315,282.077606 
	C780.028564,286.430664 777.757080,293.047302 780.120239,299.179962 
	C782.287170,304.803345 786.378540,308.205200 792.422913,308.634888 
	C799.474182,309.136169 804.593506,305.641693 807.917175,299.699249 
	C811.292969,293.663483 809.627075,288.159454 804.745361,282.710663 
z"/>
<path fill="#000000" opacity="1.000000" stroke="none" 
	d="
M807.570496,694.592590 
	C808.117554,693.720459 808.408203,693.096252 808.850281,692.609619 
	C815.328796,685.476868 816.138428,678.580688 808.993835,671.099426 
	C805.028564,666.947266 809.270813,664.085693 811.582092,661.171997 
	C813.852234,661.638489 814.424072,663.374084 815.308777,664.695862 
	C825.688538,680.204651 835.987000,695.768066 846.407776,711.249084 
	C847.967712,713.566711 848.557434,715.486145 846.872314,718.040588 
	C845.123413,720.691772 843.491699,722.801636 839.782043,722.268921 
	C820.036194,719.433044 800.272217,716.723206 780.517395,713.949280 
	C780.222778,713.907898 779.964905,713.604492 779.691589,713.420776 
	C780.251160,707.302856 782.922546,704.321411 788.335144,705.998535 
	C797.400696,708.807434 802.429260,705.340393 805.771240,697.427734 
	C806.154114,696.521240 806.839417,695.742432 807.570496,694.592590 
M816.445923,709.947571 
	C822.846741,710.877930 829.200256,712.294250 836.865906,712.475037 
	C831.183105,704.102478 826.162354,696.705322 820.601074,688.511780 
	C816.210938,695.716919 812.491089,701.822083 808.731140,707.992920 
	C811.317078,709.565125 813.484375,709.632385 816.445923,709.947571 
z"/>
<path fill="#000000" opacity="1.000000" stroke="none" 
	d="
M182.581223,304.473572 
	C188.017929,301.103394 188.293472,306.343628 190.437683,308.292664 
	C189.723389,310.759308 187.541580,311.307159 186.099716,312.598846 
	C181.161392,317.022919 176.981018,321.903564 176.174973,328.798370 
	C175.792358,332.071289 176.226517,335.272705 179.522430,337.027100 
	C182.864548,338.806122 186.060257,337.978973 188.752548,335.587616 
	C191.360260,333.271362 193.714066,330.671661 196.228973,328.247894 
	C198.622330,325.941254 200.916046,323.487579 203.541611,321.474182 
	C209.885345,316.609406 215.532516,316.219879 221.542221,319.887177 
	C227.411545,323.468811 230.541473,329.853119 229.034805,337.045532 
	C226.676376,348.304169 220.532043,357.127777 210.593460,363.171600 
	C208.091293,364.693207 206.116928,364.745331 204.212326,362.079041 
	C202.393219,359.532410 202.119263,357.922333 205.335266,356.260193 
	C212.451965,352.581970 217.101181,346.651184 219.823486,339.164551 
	C221.329132,335.023804 221.088333,331.190063 217.262787,328.449158 
	C213.564438,325.799469 210.121490,327.524261 207.310898,330.066956 
	C203.003754,333.963501 199.204849,338.427246 194.851089,342.265564 
	C187.300262,348.922607 180.980957,349.590820 174.122086,344.960663 
	C168.034927,340.851379 165.877548,332.862000 168.490417,324.328247 
	C170.957397,316.270935 175.432831,309.644409 182.581223,304.473572 
z"/>
<path fill="#000000" opacity="1.000000" stroke="none" 
	d="
M393.893799,841.975159 
	C402.457001,844.657104 410.642792,847.207458 418.892975,849.777893 
	C420.581757,841.304199 414.416626,834.364929 405.091736,833.324646 
	C402.422882,833.026855 399.773499,833.199951 397.229401,834.193604 
	C394.302277,835.336914 393.480927,833.297852 392.570496,831.204041 
	C391.556854,828.872742 392.174072,827.437378 394.555359,826.557617 
	C404.473053,822.893860 413.327576,825.504150 421.144470,831.717712 
	C428.596619,837.641357 430.683319,847.043640 427.496674,856.564453 
	C424.348877,865.969238 416.874725,871.929626 407.336914,872.641174 
	C391.540558,873.819580 379.663422,859.514282 383.516022,844.190491 
	C384.456573,840.449402 385.939972,838.906799 389.730896,840.593750 
	C390.938904,841.131287 392.251617,841.433655 393.893799,841.975159 
M415.107056,856.127441 
	C408.476013,854.002991 401.841156,851.890320 395.215729,849.748474 
	C392.367554,848.827698 390.896484,849.767822 391.461639,852.782349 
	C392.534332,858.504211 395.904419,862.240784 401.550415,863.942078 
	C406.437378,865.414673 412.080963,863.969299 415.141113,860.239685 
	C416.052704,859.128601 417.398743,857.992554 415.107056,856.127441 
z"/>
<path fill="#000000" opacity="1.000000" stroke="none" 
	d="
M174.171234,674.850098 
	C162.676270,661.194824 164.949112,645.261658 179.002853,637.700500 
	C182.487350,635.825806 184.230698,636.336914 185.780975,640.038635 
	C188.803085,647.254639 192.222382,654.304626 195.492432,661.416382 
	C196.449860,663.498535 197.128052,665.758057 198.824036,667.370422 
	C204.391647,664.624695 206.331085,659.048096 204.289429,651.968994 
	C202.984436,647.444214 200.321213,643.830994 196.180923,641.620789 
	C193.132355,639.993408 193.328461,638.161743 194.680801,635.526306 
	C196.301926,632.366882 198.382584,633.334351 200.462723,634.602783 
	C209.361374,640.029297 213.572678,648.353394 213.578857,658.426147 
	C213.584579,667.783936 208.384109,674.337219 200.020447,678.340820 
	C190.815353,682.747131 182.273270,681.629639 174.171234,674.850098 
M182.218338,670.550781 
	C185.161026,671.858704 188.124527,672.559387 191.837708,670.782104 
	C188.486191,662.773376 185.504990,654.824219 181.151978,647.385498 
	C172.517593,653.226379 172.941315,663.593689 182.218338,670.550781 
z"/>
<path fill="#000000" opacity="1.000000" stroke="none" 
	d="
M480.303162,160.402069 
	C472.607758,161.420731 465.358948,162.404495 458.104065,163.341232 
	C456.462646,163.553162 454.451874,163.325912 453.735962,165.091156 
	C452.933380,167.070160 454.566833,168.532120 455.787323,169.836807 
	C460.923981,175.327942 471.876984,175.539032 478.658539,169.888016 
	C481.551453,167.477341 483.422333,167.750687 485.752563,170.262726 
	C487.206726,171.830322 486.972015,173.036880 485.796478,174.612793 
	C479.151520,183.520874 460.566650,185.052979 451.068176,177.416580 
	C441.262787,169.533401 439.868896,152.753433 448.228546,143.233505 
	C456.434113,133.889008 471.957886,133.074554 481.074219,141.494431 
	C483.838226,144.047287 485.641815,147.228668 486.923950,150.683014 
	C489.720856,158.218216 488.882568,159.462814 480.303162,160.402069 
M454.189026,156.772842 
	C462.107971,155.445862 470.207153,155.164200 478.090179,153.218262 
	C476.231995,147.105972 471.143921,143.345581 465.419434,143.436783 
	C459.592773,143.529617 453.809296,147.534760 452.466614,152.604935 
	C452.092438,154.017914 450.968536,155.911911 454.189026,156.772842 
z"/>
<path fill="#000000" opacity="1.000000" stroke="none" 
	d="
M174.984619,472.865540 
	C174.721466,470.446472 174.113129,468.517670 172.962936,466.865387 
	C170.996658,464.040985 172.775726,462.733307 174.860352,461.306000 
	C177.071533,459.792053 178.596741,460.489258 179.803040,462.537079 
	C184.987534,471.338409 184.762207,480.421722 180.328506,489.256866 
	C176.228638,497.426697 169.058167,501.432312 159.956421,501.211456 
	C150.431381,500.980316 142.901169,496.948669 138.656219,488.038269 
	C131.356476,472.715668 142.063889,455.585297 159.019180,455.343353 
	C164.627533,455.263367 165.176117,456.092560 164.622696,461.656128 
	C163.656677,471.367432 162.963623,481.105896 162.157578,490.815857 
	C170.483780,491.605774 176.131500,483.472351 174.984619,472.865540 
M145.600693,483.701843 
	C147.564362,486.959290 149.588013,490.137939 154.541000,490.425476 
	C156.097900,481.803741 156.553436,473.311615 157.139496,464.861664 
	C149.283493,463.501007 141.579285,474.781006 145.600693,483.701843 
z"/>
<path fill="#000000" opacity="1.000000" stroke="none" 
	d="
M621.186279,175.901917 
	C611.683899,173.314560 602.571472,170.843445 593.195557,168.300873 
	C591.945068,172.467117 593.574036,175.453888 595.732910,178.162155 
	C599.984436,183.495483 607.953918,185.909378 614.630859,183.398972 
	C618.170776,182.068008 619.431213,183.390472 620.621216,186.249298 
	C622.008789,189.582947 619.629944,190.438873 617.438660,191.201477 
	C607.734070,194.578888 598.900940,192.303940 591.334351,185.942429 
	C584.402344,180.114410 582.085999,172.227737 584.293640,163.388474 
	C586.712036,153.705368 592.576904,147.311035 602.687622,145.246414 
	C618.758972,141.964630 633.309265,157.666412 629.034241,173.594894 
	C627.684875,178.622482 624.505920,176.602615 621.186279,175.901917 
M611.390137,165.923340 
	C614.368408,166.598450 617.181885,168.301697 620.334900,167.665024 
	C622.171814,161.124054 616.704590,154.910110 609.910217,153.454300 
	C603.188477,152.014069 597.612244,154.939896 595.421387,161.485580 
	C600.489685,162.903610 605.545959,164.318268 611.390137,165.923340 
z"/>
<path fill="#000000" opacity="1.000000" stroke="none" 
	d="
M258.359619,722.676147 
	C265.163208,730.763062 268.260925,739.405701 263.492218,749.155518 
	C259.033661,758.271240 251.452911,763.242249 241.163925,763.264404 
	C231.793579,763.284607 223.484802,756.921021 220.059097,747.596802 
	C217.011368,739.301270 219.594910,729.630188 226.266510,723.438293 
	C229.014359,720.888184 230.876663,721.236145 233.175827,724.083740 
	C238.504074,730.682800 244.083786,737.079346 249.589905,743.533875 
	C250.746674,744.889893 251.567139,746.659058 253.539780,747.110046 
	C257.861969,742.548401 257.935272,736.014526 253.708054,729.901917 
	C251.249268,726.346497 247.944260,723.816895 243.704529,722.940735 
	C240.111343,722.198120 240.323059,719.886292 240.848221,717.308167 
	C241.468094,714.265015 243.725052,714.503784 245.927521,715.031250 
	C250.760498,716.188477 254.805542,718.705017 258.359619,722.676147 
M241.183472,744.300964 
	C237.753906,740.349670 234.324326,736.398438 230.845093,732.389954 
	C225.677826,738.259460 226.045181,745.242493 231.275360,750.689758 
	C235.998856,755.609314 242.435043,756.309082 247.176117,752.326477 
	C246.175156,749.233276 243.452042,747.365906 241.183472,744.300964 
z"/>
<path fill="#000000" opacity="1.000000" stroke="none" 
	d="
M705.260803,215.800354 
	C697.820374,211.373764 690.693604,207.136261 683.520020,202.870987 
	C679.347961,212.815903 688.236084,223.924164 699.690918,223.455078 
	C702.303101,223.348129 704.269165,223.218414 704.908813,226.363785 
	C705.484192,229.192734 704.708862,230.754791 701.679260,231.297333 
	C688.983215,233.571091 674.203857,222.031998 672.844971,208.681030 
	C671.596436,196.415146 683.025024,183.156845 695.634338,183.049026 
	C704.477966,182.973389 711.833008,186.844238 716.497925,194.637619 
	C721.017761,202.188492 720.213684,209.878525 716.326904,217.486786 
	C714.973145,220.136795 713.243713,220.730011 710.715576,219.075592 
	C709.044312,217.981934 707.291016,217.013794 705.260803,215.800354 
M689.486511,198.192902 
	C696.105225,202.137741 702.723938,206.082596 709.489014,210.114670 
	C711.865723,203.241516 710.507324,198.215073 705.882202,194.591995 
	C700.981201,190.752838 694.843933,190.226395 690.057068,193.332169 
	C688.395081,194.410538 686.239929,195.542267 689.486511,198.192902 
z"/>
<path fill="#000000" opacity="1.000000" stroke="none" 
	d="
M813.543091,316.212372 
	C823.261658,312.383087 831.974304,313.220795 839.277466,320.503784 
	C845.940063,327.148132 848.246826,335.287201 845.198608,344.343994 
	C842.969910,350.965942 838.323059,355.571259 831.185242,358.235596 
	C825.307129,347.983002 819.487061,337.831573 813.693054,327.725769 
	C805.166992,332.102905 807.120300,347.936066 817.456970,353.367554 
	C819.285889,354.328613 821.681885,354.737610 820.730591,357.938507 
	C819.602234,361.735443 817.656250,362.695129 814.116211,360.822662 
	C805.242554,356.129120 800.695679,348.483521 799.765137,338.822205 
	C798.748596,328.268188 804.065491,321.079803 813.543091,316.212372 
M834.571289,345.655701 
	C839.432373,339.255676 839.618530,333.938171 835.188965,328.014618 
	C831.583435,323.193024 826.224365,321.662842 820.186157,324.192322 
	C823.870605,331.757874 827.813782,339.111694 832.665161,345.970856 
	C832.823914,346.195374 833.564880,346.008179 834.571289,345.655701 
z"/>
<path fill="#000000" opacity="1.000000" stroke="none" 
	d="
M743.924194,806.270508 
	C738.190430,806.025146 733.931519,803.627319 730.549988,799.667419 
	C725.575317,793.841919 720.634521,787.983887 715.835693,782.013977 
	C714.533813,780.394348 711.517273,778.889343 713.709534,776.206177 
	C715.574951,773.923157 717.938416,771.852234 721.428223,773.818787 
	C724.087646,766.256348 728.956421,761.066711 736.229858,758.286316 
	C741.925781,756.109009 747.521606,757.494446 751.203064,761.831360 
	C755.097717,766.419434 755.408997,772.123108 752.096924,777.579956 
	C749.163635,782.412720 744.469482,785.417053 740.338074,789.011841 
	C739.133667,790.059875 737.134705,790.829468 737.578735,792.797485 
	C738.063721,794.946777 740.120361,795.861084 742.017151,796.435669 
	C746.562805,797.812439 750.107056,795.588135 753.360962,792.800049 
	C756.074524,790.474915 758.007935,787.498535 759.142456,784.172485 
	C760.178467,781.135071 761.800293,780.909119 764.449524,781.961182 
	C767.315918,783.099487 767.708191,784.884705 766.583740,787.481995 
	C762.276001,797.431763 755.309570,804.206299 743.924194,806.270508 
M738.098633,781.585266 
	C740.042480,779.795715 742.160950,778.157959 743.884277,776.176636 
	C745.865784,773.898315 746.658142,771.178894 744.571411,768.481384 
	C742.409302,765.686401 739.432251,765.529053 736.487976,766.808167 
	C732.512085,768.535461 729.649475,771.536194 728.466187,775.769348 
	C727.541870,779.075806 727.354370,782.574463 730.547729,784.826599 
	C733.969727,787.240051 735.332275,783.304382 738.098633,781.585266 
z"/>
<path fill="#000000" opacity="1.000000" stroke="none" 
	d="
M844.930847,550.350342 
	C842.725098,543.497559 843.177917,537.143555 846.322876,531.113831 
	C848.844116,526.279907 852.961121,523.553894 858.498779,523.973572 
	C864.130798,524.400391 868.135376,527.373291 870.027771,532.867004 
	C871.772217,537.931274 871.023315,543.020691 870.525146,548.189758 
	C870.277954,550.755005 868.217651,554.799988 872.620483,555.710022 
	C876.698242,556.552979 879.768066,553.973267 881.009033,550.127625 
	C882.633423,545.094299 882.560181,539.891602 880.346741,535.001038 
	C879.045349,532.125488 879.349548,530.507568 882.484375,529.240356 
	C885.800354,527.899780 887.047302,529.478333 888.054810,532.152100 
	C890.995850,539.957764 891.208679,547.801880 888.114563,555.566345 
	C885.670288,561.700012 881.064453,565.120605 874.341187,565.363708 
	C864.641357,565.714478 855.124023,563.678711 845.494873,563.075806 
	C843.824524,562.971252 841.919373,562.371887 842.154419,560.171692 
	C842.435120,557.544495 841.811646,554.115906 846.011292,554.145996 
	C846.501892,552.581299 845.516724,551.724670 844.930847,550.350342 
M862.894226,552.051270 
	C863.977356,547.632385 863.935364,543.140747 863.603027,538.658325 
	C863.412720,536.090332 861.862183,534.358398 859.411133,533.610840 
	C856.911743,532.848450 854.860168,533.695068 853.200073,535.669189 
	C849.387573,540.202759 850.523743,550.684814 855.514526,553.683838 
	C857.743469,555.023132 860.905945,557.430359 862.894226,552.051270 
z"/>
<path fill="#000000" opacity="1.000000" stroke="none" 
	d="
M864.352539,645.477478 
	C859.275085,649.760254 853.799988,650.236816 848.110901,648.355286 
	C840.381104,645.798706 832.712830,643.046082 825.086365,640.195129 
	C823.331543,639.539062 820.245789,639.544861 821.207703,636.208130 
	C822.007141,633.434998 822.356873,629.992737 826.959961,631.034424 
	C825.027893,623.294373 826.461731,616.470093 830.755676,610.336182 
	C834.538452,604.932800 841.132202,603.203674 847.142883,605.699951 
	C852.731628,608.021057 855.465332,613.313965 854.610168,619.964233 
	C853.945374,625.134888 852.097351,629.961365 850.285461,634.776001 
	C848.775818,638.787598 850.372620,639.891174 854.107239,639.763855 
	C858.336121,639.619690 860.776550,637.114197 862.486389,633.656738 
	C864.536072,629.512207 865.225708,625.063660 864.392395,620.545227 
	C863.884766,617.792847 864.016846,616.137695 867.318909,615.654724 
	C870.515930,615.187012 872.047791,616.319214 872.403259,619.407837 
	C873.522522,629.133057 871.432617,637.886353 864.352539,645.477478 
M836.078857,616.724182 
	C834.442444,618.901062 833.575073,621.383911 833.292603,624.061218 
	C832.718384,629.504089 834.872192,633.732483 838.790100,635.190857 
	C840.794250,635.936890 842.416931,635.846008 843.182068,633.562439 
	C844.493713,629.647888 846.446960,625.928589 846.886902,621.745239 
	C847.192017,618.843140 847.156372,616.050110 844.073853,614.431274 
	C841.060974,612.848938 838.659302,613.873901 836.078857,616.724182 
z"/>
<path fill="#000000" opacity="1.000000" stroke="none" 
	d="
M403.639648,180.488464 
	C405.011627,183.935120 406.304657,187.003433 407.410339,190.137848 
	C408.071533,192.012192 410.119720,194.253540 407.359680,195.837738 
	C404.765442,197.326797 401.787811,199.275436 399.328552,195.430435 
	C393.452118,202.694290 386.387909,206.726700 377.076660,205.416611 
	C371.512787,204.633774 368.051849,201.080734 366.836243,195.797760 
	C365.581451,190.344437 367.205200,185.634048 371.914795,182.175949 
	C376.003021,179.174088 380.729767,177.552170 385.323212,175.613724 
	C386.977386,174.915649 388.932343,174.783936 390.170593,173.244965 
	C388.499176,166.977661 383.793457,164.684235 377.121033,166.842514 
	C372.688110,168.276382 369.245697,171.117477 366.303894,174.590515 
	C364.471069,176.754364 362.896515,175.956909 361.225739,174.502380 
	C359.826111,173.283905 358.426727,172.252090 359.622314,169.935059 
	C363.206635,162.988770 378.009125,155.878510 385.951324,157.309311 
	C391.688019,158.342773 395.648865,161.608170 398.011902,166.746109 
	C400.024902,171.122818 401.672607,175.667526 403.639648,180.488464 
M382.774231,184.252441 
	C380.618011,185.146225 378.492615,186.108917 376.944305,187.941330 
	C373.890198,191.555832 375.610657,196.574463 380.223114,197.572495 
	C386.315002,198.890640 394.623260,192.977631 395.384766,186.781860 
	C395.964172,182.067947 393.391663,180.031387 389.011780,181.747681 
	C387.159302,182.473572 385.317932,183.227676 382.774231,184.252441 
z"/>
<path fill="#000000" opacity="1.000000" stroke="none" 
	d="
M238.031555,269.591248 
	C248.016037,272.463806 254.341049,278.425659 256.409393,288.388336 
	C258.330597,297.642242 254.738419,305.183807 248.123169,311.145508 
	C238.167908,320.117310 224.299927,318.969757 215.141602,308.932556 
	C206.386261,299.337006 207.130539,285.256714 217.121887,275.856415 
	C222.844116,270.472687 229.520477,267.516418 238.031555,269.591248 
M235.702026,278.495300 
	C227.180969,277.722778 221.550720,280.758972 218.849564,287.583221 
	C216.477356,293.576385 218.181900,299.485077 223.589325,304.013458 
	C229.068634,308.602020 236.097794,309.258240 241.540756,305.539185 
	C246.339355,302.260406 248.490799,297.621033 247.845413,291.837982 
	C247.071457,284.903015 242.611481,281.061707 235.702026,278.495300 
z"/>
<path fill="#000000" opacity="1.000000" stroke="none" 
	d="
M753.312988,227.867950 
	C765.042358,227.778183 774.382812,233.810394 778.515625,243.826569 
	C782.082520,252.471313 780.114868,261.664764 773.218201,268.577240 
	C765.997559,275.814514 756.382019,277.833954 747.613892,273.954620 
	C738.212219,269.794983 731.602234,259.943634 732.120239,250.863098 
	C732.680786,241.036072 739.728149,231.805481 748.998779,228.818649 
	C750.258850,228.412659 751.582397,228.203720 753.312988,227.867950 
M770.187927,256.527283 
	C770.652588,254.607224 771.545410,252.678406 771.506226,250.768692 
	C771.353638,243.313354 762.810791,235.811325 755.638733,236.580093 
	C747.178955,237.486877 740.289246,246.140533 741.332703,254.548859 
	C742.328857,262.575745 750.192078,268.266205 758.347351,266.627899 
	C763.758789,265.540833 767.413818,262.043518 770.187927,256.527283 
z"/>
<path fill="#000000" opacity="1.000000" stroke="none" 
	d="
M159.272339,563.788452 
	C173.566635,560.058167 185.271805,566.486511 189.306839,579.957336 
	C193.062775,592.496460 186.646378,605.144653 174.465393,609.213379 
	C161.911072,613.406860 149.476883,607.465149 144.932999,595.101196 
	C139.963135,581.578186 145.346252,569.527832 159.272339,563.788452 
M181.438904,582.384277 
	C177.349930,572.215698 166.906265,568.813110 157.833771,574.693665 
	C152.771332,577.975037 150.412598,584.110657 152.007843,589.848206 
	C153.979431,596.939392 158.283493,600.487488 164.957428,600.907410 
	C173.901749,601.470337 183.649292,595.533142 181.438904,582.384277 
z"/>
<path fill="#000000" opacity="1.000000" stroke="none" 
	d="
M693.636719,815.329834 
	C700.423035,820.686096 706.921509,825.829834 713.409241,830.965027 
	C709.250488,836.413147 706.609985,836.804810 701.854248,833.070801 
	C693.746521,826.704834 685.618164,820.365173 676.795044,813.464355 
	C675.539062,820.483276 677.544250,826.588562 677.660034,832.723694 
	C677.750610,837.520935 678.587585,842.308716 679.175537,847.090637 
	C679.820923,852.339172 675.653687,852.667847 672.439331,854.259460 
	C669.581604,851.244019 670.704285,847.652893 670.428589,844.549438 
	C669.000854,828.475769 667.633179,812.384216 666.865540,796.269348 
	C666.416260,786.836609 673.530029,779.623718 682.722290,778.941467 
	C685.603882,778.727539 688.161133,779.094666 688.240906,782.927673 
	C688.296814,785.614624 687.709839,787.396179 684.416016,787.368835 
	C680.296936,787.334595 676.585266,788.767822 675.578125,793.162170 
	C674.584351,797.498291 674.935486,801.567871 679.449707,804.513855 
	C684.316589,807.689880 688.734863,811.553589 693.636719,815.329834 
z"/>
<path fill="#000000" opacity="1.000000" stroke="none" 
	d="
M807.256165,749.127808 
	C805.075134,752.125549 803.301025,749.899048 801.109253,748.912964 
	C800.542542,755.581360 798.003052,761.156311 793.187439,765.591003 
	C786.510986,771.739624 778.319397,772.587280 770.833557,767.457092 
	C763.123657,762.173218 756.718201,755.309570 749.658691,749.233582 
	C747.122192,747.050476 748.980713,745.473328 750.417847,743.837524 
	C752.031250,742.001221 753.542480,740.286682 756.155823,742.645447 
	C761.714355,747.662354 767.227844,752.749573 773.048401,757.450623 
	C780.886108,763.781006 789.482483,761.110413 792.839722,751.556335 
	C794.914185,745.652588 792.268311,741.142517 788.188599,737.318298 
	C783.698547,733.109558 778.958374,729.167908 774.333679,725.102417 
	C772.137451,723.171814 770.046631,721.558411 772.976318,718.216919 
	C775.676819,715.137024 777.661682,715.407654 780.394165,717.866272 
	C789.424377,725.991211 798.452759,734.124146 807.693726,742.005554 
	C810.909973,744.748657 809.780823,746.649414 807.256165,749.127808 
z"/>
<path fill="#000000" opacity="1.000000" stroke="none" 
	d="
M663.235718,849.708679 
	C661.306763,861.300415 644.749634,867.528625 634.673828,866.257874 
	C632.514954,865.985657 631.855408,864.583374 632.178406,862.715332 
	C632.564453,860.482544 632.600281,857.814941 636.024170,857.953064 
	C640.769104,858.144592 645.341187,857.478027 649.500244,855.014771 
	C652.202881,853.414124 654.704163,851.454346 653.496033,847.867615 
	C652.397339,844.605408 649.356812,844.895691 646.708862,845.209412 
	C642.915833,845.658875 639.156433,846.391235 635.382141,846.999451 
	C628.445740,848.117371 623.515930,845.985168 620.979187,840.773315 
	C618.350159,835.371765 619.554382,829.383728 624.703796,825.044739 
	C631.594971,819.238037 639.754517,816.672852 648.749634,816.851257 
	C651.779480,816.911377 653.807556,817.909546 653.593262,821.623047 
	C653.380066,825.317749 651.647339,825.748840 648.380127,825.475220 
	C642.419861,824.975952 636.823669,826.630981 631.812988,829.941162 
	C629.781494,831.283142 628.171997,833.086609 629.140686,835.788391 
	C630.106567,838.482605 632.465576,838.943848 634.903748,838.595764 
	C639.180359,837.985229 643.413452,837.073792 647.685913,836.428711 
	C656.890808,835.038879 662.605713,839.795654 663.235718,849.708679 
z"/>
<path fill="#000000" opacity="1.000000" stroke="none" 
	d="
M245.564270,222.743286 
	C248.773056,226.296341 248.590393,228.681305 244.237701,230.944046 
	C241.468628,232.383575 239.336288,235.089417 241.112259,238.864899 
	C243.331589,243.583038 245.480164,244.013260 249.144577,240.387161 
	C250.209000,239.333893 251.288788,238.290085 252.278275,237.168472 
	C254.075226,235.131607 255.581863,235.651321 257.262695,237.407730 
	C258.891602,239.109924 260.400604,240.734283 257.929413,242.757492 
	C255.612534,244.654343 253.127274,246.345520 250.817673,248.052155 
	C259.729797,257.235626 267.263336,265.164246 275.006989,272.882080 
	C277.497711,275.364502 278.079102,277.100677 275.243896,279.802094 
	C272.747406,282.180786 271.129547,282.242279 268.685669,279.778961 
	C260.967773,271.999573 253.046890,264.421570 245.482864,257.037354 
	C243.375610,256.973022 242.595139,258.208313 241.749451,259.151733 
	C239.902069,261.212677 238.389664,260.550659 236.724762,258.923401 
	C235.136887,257.371429 233.890320,255.664017 236.003983,253.894150 
	C239.169220,251.243744 237.797668,249.393845 235.649933,246.954971 
	C232.178391,243.012939 230.311691,238.312576 232.596375,233.143677 
	C235.022934,227.653793 238.531219,223.101471 245.564270,222.743286 
z"/>
<path fill="#000000" opacity="1.000000" stroke="none" 
	d="
M682.545898,174.428406 
	C671.839294,184.698624 661.299866,194.636612 650.835938,204.653442 
	C648.997498,206.413345 647.312012,207.610062 644.724976,206.160568 
	C642.474548,204.899689 639.661255,204.490906 639.621033,200.883514 
	C639.457886,186.235657 639.133728,171.589615 638.898132,156.942444 
	C638.888123,156.316696 639.166931,155.686295 639.300598,155.103973 
	C645.855042,154.918762 648.094910,156.862518 648.136963,162.811920 
	C648.198181,171.471359 648.154358,180.131500 648.190002,188.791199 
	C648.196594,190.390137 648.367249,191.988419 648.501160,194.243469 
	C654.395691,190.113342 658.806458,185.406891 663.484802,181.011520 
	C666.760193,177.934219 669.954468,174.762314 673.350342,171.823669 
	C676.662903,168.957108 680.370361,169.958008 682.545898,174.428406 
z"/>
<path fill="#000000" opacity="1.000000" stroke="none" 
	d="
M222.307922,696.139526 
	C222.216766,693.085266 220.330795,694.732361 219.290878,694.886841 
	C210.093506,696.253235 200.920959,697.785522 191.729568,699.193604 
	C185.371506,700.167603 184.280777,699.398315 182.184021,692.569946 
	C188.296448,690.460205 194.763657,690.143127 201.039627,689.017761 
	C209.383591,687.521667 217.820557,686.548523 226.175140,685.105225 
	C229.557907,684.520874 231.422318,685.828064 233.089325,688.552490 
	C234.623566,691.059937 235.086761,693.000916 233.188736,695.725830 
	C225.293625,707.060730 217.671951,718.585938 209.925964,730.025085 
	C209.291840,730.961548 208.476974,731.775574 207.754791,732.636230 
	C202.263336,728.484863 201.772949,726.257263 205.253265,721.119995 
	C210.853622,712.853394 216.518143,704.630188 222.307922,696.139526 
z"/>
<path fill="#000000" opacity="1.000000" stroke="none" 
	d="
M275.217041,244.768860 
	C272.182678,241.487869 269.914673,237.968826 266.463623,235.287872 
	C263.567993,237.033981 260.716370,241.017258 257.685547,235.614761 
	C256.941895,234.289124 256.446533,232.975494 257.773010,232.093048 
	C262.408325,229.009338 259.887817,226.441772 257.398865,223.758301 
	C256.848236,223.164612 256.463531,222.416977 256.039703,221.794922 
	C260.307831,215.470505 261.347778,215.248245 266.659210,220.089127 
	C268.350067,221.630203 269.719452,221.839142 271.413910,220.420273 
	C272.688080,219.353333 274.082977,218.399734 275.211578,217.196320 
	C277.530518,214.723587 279.281036,215.321213 281.349152,217.655045 
	C283.669189,220.273178 282.140839,221.715027 280.251831,223.370819 
	C278.291718,225.088989 275.760925,226.258423 274.436005,229.439957 
	C279.483734,235.293274 284.483856,241.479111 289.919220,247.255417 
	C293.436371,250.993210 297.053741,250.428528 300.269806,245.772919 
	C302.008972,243.255280 303.432739,242.241852 306.247742,243.982285 
	C309.491882,245.988037 307.945312,248.201141 306.672180,250.333710 
	C300.648407,260.423950 289.712952,261.441986 281.888641,252.651123 
	C279.679596,250.169235 277.593506,247.577911 275.217041,244.768860 
z"/>
<path fill="#000000" opacity="1.000000" stroke="none" 
	d="
M881.446594,575.829102 
	C887.768250,576.530090 884.580505,581.057800 885.184021,583.993042 
	C887.638184,586.678833 895.493103,583.883118 892.809509,591.889648 
	C890.626587,598.402649 886.377197,592.976807 882.708862,594.432129 
	C880.991089,596.085388 881.182556,599.132874 880.569824,601.753601 
	C879.906067,604.592529 878.855713,605.812317 875.857178,605.241577 
	C872.509888,604.604370 872.068237,602.651611 872.804443,599.775879 
	C873.415466,597.389221 873.795593,594.943420 874.440735,591.707458 
	C865.952515,589.891602 857.813049,587.758240 849.539062,586.535217 
	C844.964600,585.859070 843.065918,589.421082 843.311584,593.637085 
	C843.502808,596.917236 843.107422,599.275879 839.114685,599.214050 
	C835.078979,599.151611 835.331299,595.837769 835.173828,593.440918 
	C834.435974,582.209900 842.712463,575.114929 853.670410,577.438354 
	C859.842896,578.747070 865.985107,580.202881 872.125793,581.656372 
	C875.060730,582.351013 877.434814,582.371887 877.723938,578.444031 
	C877.869812,576.462646 878.995117,575.437744 881.446594,575.829102 
z"/>
<path fill="#000000" opacity="1.000000" stroke="none" 
	d="
M620.278687,883.761353 
	C617.008545,884.861816 613.766541,886.104126 613.129761,881.417542 
	C612.269531,875.086914 608.472778,876.324036 604.431763,877.634338 
	C601.887817,878.459229 599.254395,879.663086 598.206665,875.523682 
	C597.555664,872.951721 597.916138,871.365173 600.719238,870.662598 
	C603.435730,869.981750 606.094421,869.070251 609.236511,868.121765 
	C607.651489,859.547302 605.592224,851.372070 602.532471,843.516846 
	C601.051880,839.715637 596.968872,838.900391 592.767578,841.516174 
	C590.031616,843.219604 588.385132,843.159485 586.665039,840.432007 
	C584.810791,837.491760 586.870605,836.142761 588.782349,834.790405 
	C598.407715,827.981567 608.896667,831.581543 612.361938,842.900391 
	C613.481384,846.556946 614.363220,850.285645 615.388123,853.971802 
	C616.407715,857.638977 617.470337,861.294189 618.398621,864.549866 
	C620.163940,865.779358 621.456909,865.001709 622.673706,864.684753 
	C625.265930,864.009399 626.381226,865.309448 626.968872,867.521240 
	C627.515198,869.577942 627.864075,871.641724 625.046326,872.248596 
	C620.889526,873.143982 620.805420,875.633972 622.014526,878.988831 
	C622.623413,880.678284 623.046326,882.669312 620.278687,883.761353 
z"/>
<path fill="#000000" opacity="1.000000" stroke="none" 
	d="
M750.103394,204.099197 
	C739.914612,217.664841 729.893677,230.916779 719.999268,244.262604 
	C717.966492,247.004501 716.385986,248.691879 712.859253,246.008850 
	C709.504211,243.456497 710.148804,241.607666 712.357544,238.727463 
	C722.771545,225.147430 732.999268,211.424377 743.269287,197.734207 
	C747.997986,191.430786 748.957397,191.396210 754.290405,197.633575 
	C753.600342,200.070633 751.712341,201.790878 750.103394,204.099197 
z"/>
<path fill="#000000" opacity="1.000000" stroke="none" 
	d="
M173.944229,629.094971 
	C163.626862,632.482422 153.659027,635.670471 143.765610,639.074768 
	C140.668457,640.140442 138.913406,639.820312 137.782440,636.389526 
	C136.653183,632.963867 137.310013,631.400940 140.909042,630.227966 
	C157.964630,624.669067 174.949738,618.890442 191.908752,613.041565 
	C195.329437,611.861877 197.364319,611.982361 198.665833,615.956787 
	C199.923325,619.796814 198.237839,620.975220 195.092392,621.980164 
	C188.134094,624.203613 181.241760,626.633484 173.944229,629.094971 
z"/>
<path fill="#000000" opacity="1.000000" stroke="none" 
	d="
M712.964844,815.000244 
	C707.738464,807.274475 702.843750,799.753540 697.650513,792.444641 
	C695.378113,789.246582 696.405457,787.631226 699.243103,785.692810 
	C702.374390,783.554016 703.838867,784.869019 705.575562,787.475647 
	C715.613892,802.541809 725.701050,817.576965 735.944336,832.504089 
	C737.990967,835.486511 737.913574,837.081543 734.800537,839.274597 
	C731.480652,841.613403 729.905212,840.481445 728.078674,837.680847 
	C723.181274,830.171753 718.152100,822.748535 712.964844,815.000244 
z"/>
<path fill="#000000" opacity="1.000000" stroke="none" 
	d="
M859.385132,366.972534 
	C857.476929,367.963989 858.392700,368.585846 859.366882,369.056213 
	C862.315552,370.480103 864.542603,372.718262 866.168701,375.461151 
	C867.312744,377.391052 869.901978,379.646545 866.178650,381.616425 
	C863.447571,383.061401 861.078857,384.213776 858.819458,380.239929 
	C855.020447,373.558289 849.968811,371.861786 842.733826,374.403839 
	C836.312988,376.659882 829.998962,379.248444 823.744751,381.938873 
	C820.281555,383.428741 819.030762,381.767975 817.803345,378.957672 
	C816.522156,376.024231 817.123291,374.529449 820.185791,373.302002 
	C831.749756,368.667297 843.213501,363.782898 854.725098,359.016998 
	C856.578003,358.249878 858.658936,357.242584 859.683960,360.052948 
	C860.490295,362.263641 863.429382,364.615265 859.385132,366.972534 
z"/>
<path fill="#000000" opacity="1.000000" stroke="none" 
	d="
M431.604614,150.529785 
	C423.101532,154.282898 420.642975,159.073196 422.719208,167.870972 
	C424.130951,173.853012 425.653442,179.820465 427.449097,185.695831 
	C428.475006,189.052597 427.543365,190.465698 424.238678,191.410278 
	C420.576477,192.457031 419.157104,191.231873 418.301788,187.758713 
	C415.478912,176.296021 412.396484,164.897507 409.481720,153.457031 
	C408.898102,151.166183 407.481598,148.591736 411.075256,147.192947 
	C414.232849,145.963913 416.938202,145.561249 418.152130,150.474426 
	C421.075897,147.071579 423.614532,144.202560 427.243835,142.811752 
	C429.035034,142.125305 431.332581,140.584976 432.461853,143.135056 
	C433.445801,145.356949 435.897308,148.271561 431.604614,150.529785 
z"/>
<path fill="#000000" opacity="1.000000" stroke="none" 
	d="
M172.898209,448.262695 
	C164.039139,446.343658 155.587173,444.525909 147.160583,442.597198 
	C144.746582,442.044647 141.417480,442.338013 142.345551,438.004364 
	C143.073410,434.605591 143.672073,431.381378 148.779419,433.767059 
	C146.548904,427.836548 143.878601,422.654877 147.390472,417.133575 
	C154.526199,417.905334 154.526199,417.905334 154.421127,424.551788 
	C154.331711,430.208344 157.801132,434.741150 164.480484,436.646088 
	C170.703690,438.420929 177.085449,439.652374 183.419510,441.020691 
	C186.658325,441.720367 188.850067,442.448059 187.824707,446.875824 
	C186.753479,451.501617 184.114883,450.668335 181.114563,450.035217 
	C178.510147,449.485657 175.914490,448.894501 172.898209,448.262695 
z"/>
<path fill="#000000" opacity="1.000000" stroke="none" 
	d="
M845.375122,422.615417 
	C847.047363,426.135712 847.039062,429.152161 843.756958,431.182159 
	C840.695801,433.075562 837.658508,432.720215 835.322754,429.840454 
	C833.066895,427.059235 833.511169,424.141541 835.992798,421.837372 
	C839.044373,419.003937 842.244812,419.229797 845.375122,422.615417 
z"/>
<path fill="#000000" opacity="1.000000" stroke="none" 
	d="
M195.936920,388.878693 
	C198.913467,389.435547 201.116821,390.607574 201.947693,393.240906 
	C202.930145,396.354675 201.706100,398.840820 198.945587,400.384521 
	C195.816101,402.134552 193.042084,401.039917 191.046082,398.439148 
	C189.097916,395.900665 189.313614,393.162476 191.581253,390.766968 
	C192.642868,389.645477 194.000305,389.049133 195.936920,388.878693 
z"/>
<path fill="#000000" opacity="1.000000" stroke="none" 
	d="
M558.145996,840.658936 
	C561.906738,844.566223 562.302917,848.302307 559.398621,850.694092 
	C557.167358,852.531677 554.568604,853.059021 552.063843,851.343750 
	C549.181519,849.369934 548.678467,846.290039 549.977539,843.392883 
	C551.434448,840.143494 554.225830,838.889038 558.145996,840.658936 
z"/>
</svg>